<?xml version="1.0" encoding="utf-8" standalone="yes"?>
<!DOCTYPE svg PUBLIC "-//W3C//DTD SVG 1.1//EN" "http://www.w3.org/Graphics/SVG/1.1/DTD/svg11.dtd">
<svg width="758" height="488" viewBox="0 0 758 488" style="fill:none;stroke:none;fill-rule:evenodd;clip-rule:evenodd;stroke-linecap:round;stroke-linejoin:round;stroke-miterlimit:1.5;" version="1.1" xmlns="http://www.w3.org/2000/svg" xmlns:xlink="http://www.w3.org/1999/xlink"><g id="blend" style="mix-blend-mode:multiply"><g id="g-root--1.cu_sy_qrjtw7c8sj5w-fill" data-item-order="-184796" data-item-id="-1.cu_sy_qrjtw7c8sj5w" data-item-class="ScenePart Fill Stroke ColorFillGray ColorStrokeGray" data-item-index="-1" data-renderer-id="0" transform="translate(339, -3)"><g id="-1.cu_sy_qrjtw7c8sj5w-fill" stroke="none" fill="#fafafa"><g xmlns="http://www.w3.org/2000/svg"><path d="M 65.767 478C 80.755 478 106 373.235 106 244C 106 114.765 80.755 10 65.767 10C 80.775 10.012 92.942 115.084 92.942 244C 92.942 372.916 80.775 477.988 65.767 478ZM 65.766 478C 80.775 477.988 92.941 372.916 92.941 244C 92.941 115.084 80.775 10.012 65.766 10L 51.957 10C 66.061 18.395 77.199 120.263 77.199 244C 77.199 367.737 65.383 469.605 51.279 478L 65.766 478ZM 77.2 244C 77.2 367.737 65.383 469.605 51.28 478L 50.061 478C 35.073 478 10 373.235 10 244C 10 114.765 35.073 10 50.061 10C 50.699 10 51.958 10 51.958 10C 66.061 18.395 77.2 120.263 77.2 244Z"></path></g></g></g><g id="g-root-0.cr-medium_cr_hvwtnbc8sjyl-fill" data-item-order="-184794" data-item-id="0.cr-medium_cr_hvwtnbc8sjyl" data-item-class="Shape Stroke Fill ScenePart Indexed_0" data-item-index="0" data-renderer-id="0" transform="translate(508, 195)"><g id="0.cr-medium_cr_hvwtnbc8sjyl-fill" stroke="none" fill="#f0f0f0"><g xmlns="http://www.w3.org/2000/svg"><path d="M 10 46C 10 65.882 26.118 82 46 82C 65.882 82 82 65.882 82 46C 82 26.118 65.882 10 46 10C 26.118 10 10 26.118 10 46"></path></g></g></g><g id="g-root-6.cu_sy_1449afrc8sjrc-fill" data-item-order="-184791" data-item-id="6.cu_sy_1449afrc8sjrc" data-item-class="ScenePart Indexed Stroke" data-item-index="6" data-renderer-id="0" transform="translate(255, 272.9940185546875)"></g><g id="g-root-6.cr-small_cr_1449afrc8sjrd-fill" data-item-order="-184790" data-item-id="6.cr-small_cr_1449afrc8sjrd" data-item-class="Shape Stroke Fill ScenePart Indexed" data-item-index="6" data-renderer-id="0" transform="translate(195, 411)"><g id="6.cr-small_cr_1449afrc8sjrd-fill" stroke="none" fill="#ffe7e6"><g xmlns="http://www.w3.org/2000/svg"><path d="M 10 40C 10 56.569 23.431 70 40 70C 56.569 70 70 56.569 70 40C 70 23.431 56.569 10 40 10C 23.431 10 10 23.431 10 40"></path></g></g></g><g id="g-root-5.cu_sy_1hfpst3c8si6e-fill" data-item-order="-184787" data-item-id="5.cu_sy_1hfpst3c8si6e" data-item-class="ScenePart Indexed Stroke" data-item-index="5" data-renderer-id="0" transform="translate(255, 257.85699462890625)"></g><g id="g-root-5.cr-small_cr_18k2sk7c8siz3-fill" data-item-order="-184786" data-item-id="5.cr-small_cr_18k2sk7c8siz3" data-item-class="Shape Stroke Fill ScenePart Indexed" data-item-index="5" data-renderer-id="0" transform="translate(195, 327)"><g id="5.cr-small_cr_18k2sk7c8siz3-fill" stroke="none" fill="#fef2e6"><g xmlns="http://www.w3.org/2000/svg"><path d="M 10 40C 10 56.569 23.431 70 40 70C 56.569 70 70 56.569 70 40C 70 23.431 56.569 10 40 10C 23.431 10 10 23.431 10 40"></path></g></g></g><g id="g-root-4.cu_sy_1luwtufc8skjw-fill" data-item-order="-184783" data-item-id="4.cu_sy_1luwtufc8skjw" data-item-class="ScenePart Indexed Stroke" data-item-index="4" data-renderer-id="0" transform="translate(255, 236.75799560546875)"></g><g id="g-root-4.cr-small_cr_1hfpst3c8si6d-fill" data-item-order="-184782" data-item-id="4.cr-small_cr_1hfpst3c8si6d" data-item-class="Shape Stroke Fill ScenePart Indexed" data-item-index="4" data-renderer-id="0" transform="translate(195, 243)"><g id="4.cr-small_cr_1hfpst3c8si6d-fill" stroke="none" fill="#fffce6"><g xmlns="http://www.w3.org/2000/svg"><path d="M 10 40C 10 56.569 23.431 70 40 70C 56.569 70 70 56.569 70 40C 70 23.431 56.569 10 40 10C 23.431 10 10 23.431 10 40"></path></g></g></g><g id="g-root-3.cu_sy_59a8nc8sj62-fill" data-item-order="-184779" data-item-id="3.cu_sy_59a8nc8sj62" data-item-class="ScenePart Indexed Stroke" data-item-index="3" data-renderer-id="0" transform="translate(255.1090087890625, 189)"></g><g id="g-root-3.cr-small_cr_1uqju3bc8sjr7-fill" data-item-order="-184778" data-item-id="3.cr-small_cr_1uqju3bc8sjr7" data-item-class="Shape Stroke Fill ScenePart Indexed" data-item-index="3" data-renderer-id="0" transform="translate(195, 159)"><g id="3.cr-small_cr_1uqju3bc8sjr7-fill" stroke="none" fill="#f5fbe9"><g xmlns="http://www.w3.org/2000/svg"><path d="M 10 40C 10 56.569 23.431 70 40 70C 56.569 70 70 56.569 70 40C 70 23.431 56.569 10 40 10C 23.431 10 10 23.431 10 40"></path></g></g></g><g id="g-root-2.cu_sy_90wahjc8sidc-fill" data-item-order="-184775" data-item-id="2.cu_sy_90wahjc8sidc" data-item-class="ScenePart Indexed Stroke" data-item-index="2" data-renderer-id="0" transform="translate(255, 105)"></g><g id="g-root-2.cr-small_cr_59a8nc8sj61-fill" data-item-order="-184774" data-item-id="2.cr-small_cr_59a8nc8sj61" data-item-class="Shape Stroke Fill ScenePart Indexed" data-item-index="2" data-renderer-id="0" transform="translate(195, 75)"><g id="2.cr-small_cr_59a8nc8sj61-fill" stroke="none" fill="#e9fbf3"><g xmlns="http://www.w3.org/2000/svg"><path d="M 10 40C 10 56.569 23.431 70 40 70C 56.569 70 70 56.569 70 40C 70 23.431 56.569 10 40 10C 23.431 10 10 23.431 10 40"></path></g></g></g><g id="g-root-1.cu_sy_dgpslzc8shl2-fill" data-item-order="-184771" data-item-id="1.cu_sy_dgpslzc8shl2" data-item-class="ScenePart Indexed Indexed_1 Stroke" data-item-index="1" data-renderer-id="0" transform="translate(255, 21)"></g><g id="g-root-1.cr-small_cr_dgpslzc8shl3-fill" data-item-order="-184770" data-item-id="1.cr-small_cr_dgpslzc8shl3" data-item-class="Shape Stroke Fill ScenePart Indexed Indexed_1" data-item-index="1" data-renderer-id="0" transform="translate(195, -9)"><g id="1.cr-small_cr_dgpslzc8shl3-fill" stroke="none" fill="#e6f9ff"><g xmlns="http://www.w3.org/2000/svg"><path d="M 10 40C 10 56.569 23.431 70 40 70C 56.569 70 70 56.569 70 40C 70 23.431 56.569 10 40 10C 23.431 10 10 23.431 10 40"></path></g></g></g><g id="g-root-targ_24wt3c8zif6-fill" data-item-order="0" data-item-id="targ_24wt3c8zif6" data-item-class="Icon Stroke SceneTarget Indexed InsideFill InsideColorFill" data-item-index="2" data-renderer-id="0" transform="translate(207, 87)"></g><g id="g-root-tx_highcali_1464pp3c8sirq-fill" data-item-order="0" data-item-id="tx_highcali_1464pp3c8sirq" data-item-class="Label Stroke SceneTarget Indexed" data-item-index="3" data-renderer-id="0" transform="translate(63, 165)"></g><g id="g-root-chat_v8ma6vc8zk7i-fill" data-item-order="0" data-item-id="chat_v8ma6vc8zk7i" data-item-class="Icon Stroke SceneTarget Indexed InsideFill InsideColorFill" data-item-index="3" data-renderer-id="0" transform="translate(207, 171)"></g><g id="g-root-tx_leadersh_vahpg7c8sjkf-fill" data-item-order="0" data-item-id="tx_leadersh_vahpg7c8sjkf" data-item-class="Label Stroke SceneTarget Indexed" data-item-index="2" data-renderer-id="0" transform="translate(-9, 81)"></g><g id="g-root-grap_1lpx15jc8zksm-fill" data-item-order="0" data-item-id="grap_1lpx15jc8zksm" data-item-class="Icon Stroke SceneTarget SceneEnd InsideFill" data-item-index="none" data-renderer-id="0" transform="translate(519, 207)"></g><g id="g-root-tx_successf_zofsbbc8skjm-fill" data-item-order="0" data-item-id="tx_successf_zofsbbc8skjm" data-item-class="Label Stroke SceneTarget SceneEnd" data-item-index="none" data-renderer-id="0" transform="translate(591, 207)"></g><g id="g-root-ente_zjfzmfc8zk0f-fill" data-item-order="0" data-item-id="ente_zjfzmfc8zk0f" data-item-class="Icon Stroke SceneTarget Indexed InsideFill InsideColorFill" data-item-index="6" data-renderer-id="0" transform="translate(207, 423)"></g><g id="g-root-tx_agilegov_1hgyqzbc8skcl-fill" data-item-order="0" data-item-id="tx_agilegov_1hgyqzbc8skcl" data-item-class="Label Stroke SceneTarget Indexed" data-item-index="4" data-renderer-id="0" transform="translate(63, 249)"></g><g id="g-root-scru_dcyy3bc8zk01-fill" data-item-order="0" data-item-id="scru_dcyy3bc8zk01" data-item-class="Icon Stroke SceneTarget Indexed InsideFill InsideColorFill" data-item-index="4" data-renderer-id="0" transform="translate(207, 255)"></g><g id="g-root-path_1lrsgevc8zjsz-fill" data-item-order="0" data-item-id="path_1lrsgevc8zjsz" data-item-class="Icon Stroke SceneTarget Indexed Indexed_1 InsideFill InsideColorFill" data-item-index="1" data-renderer-id="0" transform="translate(207, 3)"></g><g id="g-root-tx_effectiv_1usf9cnc8siro-fill" data-item-order="0" data-item-id="tx_effectiv_1usf9cnc8siro" data-item-class="Label Stroke SceneTarget Indexed" data-item-index="5" data-renderer-id="0" transform="translate(27, 333)"></g><g id="g-root-1_qofggnc8zif4-fill" data-item-order="0" data-item-id="1_qofggnc8zif4" data-item-class="Icon Stroke SceneTarget Indexed InsideFill InsideColorFill" data-item-index="5" data-renderer-id="0" transform="translate(207, 339)"></g><g id="g-root-tx_business_dhyqs7c8sjrf-fill" data-item-order="0" data-item-id="tx_business_dhyqs7c8sjrf" data-item-class="Label Stroke SceneTarget Indexed" data-item-index="6" data-renderer-id="0" transform="translate(-9, 405)"></g><g id="g-root-tx_integrat_dju61jc8sirs-fill" data-item-order="0" data-item-id="tx_integrat_dju61jc8sirs" data-item-class="Label Stroke SceneTarget Indexed Indexed_1" data-item-index="1" data-renderer-id="0" transform="translate(75, -3)"></g><g id="g-root--1.cu_sy_qrjtw7c8sj5w-stroke" data-item-order="-184796" data-item-id="-1.cu_sy_qrjtw7c8sj5w" data-item-class="ScenePart Fill Stroke ColorFillGray ColorStrokeGray" data-item-index="-1" data-renderer-id="0" transform="translate(339, -3)"><g id="-1.cu_sy_qrjtw7c8sj5w-stroke" fill="none" stroke-linecap="round" stroke-linejoin="round" stroke-miterlimit="1.5" stroke="#bbbbbb" stroke-width="2"><g xmlns="http://www.w3.org/2000/svg"><path d="M 65.767 478C 80.755 478 106 373.235 106 244C 106 114.765 80.755 10 65.767 10C 80.775 10.012 92.942 115.084 92.942 244C 92.942 372.917 80.775 477.988 65.767 478ZM 65.766 478C 80.775 477.988 92.941 372.917 92.941 244C 92.941 115.084 80.775 10.012 65.766 10L 51.957 10C 66.061 18.395 77.199 120.263 77.199 244C 77.199 367.737 65.383 469.605 51.279 478L 65.766 478ZM 77.2 244C 77.2 367.737 65.383 469.605 51.28 478L 50.061 478C 35.073 478 10 373.235 10 244C 10 114.765 35.073 10 50.061 10C 50.699 10 51.958 10 51.958 10C 66.061 18.395 77.2 120.263 77.2 244Z"></path></g></g></g><g id="g-root-0.cr-medium_cr_hvwtnbc8sjyl-stroke" data-item-order="-184794" data-item-id="0.cr-medium_cr_hvwtnbc8sjyl" data-item-class="Shape Stroke Fill ScenePart Indexed_0" data-item-index="0" data-renderer-id="0" transform="translate(508, 195)"><g id="0.cr-medium_cr_hvwtnbc8sjyl-stroke" fill="none" stroke-linecap="round" stroke-linejoin="round" stroke-miterlimit="1.5" stroke="#484848" stroke-width="2"><g xmlns="http://www.w3.org/2000/svg"><path d="M 10 46C 10 65.882 26.118 82 46 82C 65.882 82 82 65.882 82 46C 82 26.118 65.882 10 46 10C 26.118 10 10 26.118 10 46"></path></g></g></g><g id="g-root-6.cu_sy_1449afrc8sjrc-stroke" data-item-order="-184791" data-item-id="6.cu_sy_1449afrc8sjrc" data-item-class="ScenePart Indexed Stroke" data-item-index="6" data-renderer-id="0" transform="translate(255, 272.9940185546875)"><g id="6.cu_sy_1449afrc8sjrc-stroke" fill="none" stroke-linecap="round" stroke-linejoin="round" stroke-miterlimit="1.5" stroke="#e15e5a" stroke-width="2"><g xmlns="http://www.w3.org/2000/svg"><path d="M 274 10.006L 130 178.006L 10 178.006M 265.542 10.671L 273.98 10L 274.651 18.437"></path></g></g></g><g id="g-root-6.cr-small_cr_1449afrc8sjrd-stroke" data-item-order="-184790" data-item-id="6.cr-small_cr_1449afrc8sjrd" data-item-class="Shape Stroke Fill ScenePart Indexed" data-item-index="6" data-renderer-id="0" transform="translate(195, 411)"><g id="6.cr-small_cr_1449afrc8sjrd-stroke" fill="none" stroke-linecap="round" stroke-linejoin="round" stroke-miterlimit="1.5" stroke="#e15e5a" stroke-width="2"><g xmlns="http://www.w3.org/2000/svg"><path d="M 10 40C 10 56.569 23.431 70 40 70C 56.569 70 70 56.569 70 40C 70 23.431 56.569 10 40 10C 23.431 10 10 23.431 10 40"></path></g></g></g><g id="g-root-5.cu_sy_1hfpst3c8si6e-stroke" data-item-order="-184787" data-item-id="5.cu_sy_1hfpst3c8si6e" data-item-class="ScenePart Indexed Stroke" data-item-index="5" data-renderer-id="0" transform="translate(255, 257.85699462890625)"><g id="5.cu_sy_1hfpst3c8si6e-stroke" fill="none" stroke-linecap="round" stroke-linejoin="round" stroke-miterlimit="1.5" stroke="#dd8433" stroke-width="2"><g xmlns="http://www.w3.org/2000/svg"><path d="M 259 11.143L 130 109.143L 10 109.143M 250.6 10L 258.986 11.146L 257.84 19.533"></path></g></g></g><g id="g-root-5.cr-small_cr_18k2sk7c8siz3-stroke" data-item-order="-184786" data-item-id="5.cr-small_cr_18k2sk7c8siz3" data-item-class="Shape Stroke Fill ScenePart Indexed" data-item-index="5" data-renderer-id="0" transform="translate(195, 327)"><g id="5.cr-small_cr_18k2sk7c8siz3-stroke" fill="none" stroke-linecap="round" stroke-linejoin="round" stroke-miterlimit="1.5" stroke="#dd8433" stroke-width="2"><g xmlns="http://www.w3.org/2000/svg"><path d="M 10 40C 10 56.569 23.431 70 40 70C 56.569 70 70 56.569 70 40C 70 23.431 56.569 10 40 10C 23.431 10 10 23.431 10 40"></path></g></g></g><g id="g-root-4.cu_sy_1luwtufc8skjw-stroke" data-item-order="-184783" data-item-id="4.cu_sy_1luwtufc8skjw" data-item-class="ScenePart Indexed Stroke" data-item-index="4" data-renderer-id="0" transform="translate(255, 236.75799560546875)"><g id="4.cu_sy_1luwtufc8skjw-stroke" fill="none" stroke-linecap="round" stroke-linejoin="round" stroke-miterlimit="1.5" stroke="#e3cd09" stroke-width="2"><g xmlns="http://www.w3.org/2000/svg"><path d="M 252 14.242L 130 46.242L 10 46.242M 244.702 10L 252.009 14.272L 247.738 21.579"></path></g></g></g><g id="g-root-4.cr-small_cr_1hfpst3c8si6d-stroke" data-item-order="-184782" data-item-id="4.cr-small_cr_1hfpst3c8si6d" data-item-class="Shape Stroke Fill ScenePart Indexed" data-item-index="4" data-renderer-id="0" transform="translate(195, 243)"><g id="4.cr-small_cr_1hfpst3c8si6d-stroke" fill="none" stroke-linecap="round" stroke-linejoin="round" stroke-miterlimit="1.5" stroke="#e3cd09" stroke-width="2"><g xmlns="http://www.w3.org/2000/svg"><path d="M 10 40C 10 56.569 23.431 70 40 70C 56.569 70 70 56.569 70 40C 70 23.431 56.569 10 40 10C 23.431 10 10 23.431 10 40"></path></g></g></g><g id="g-root-3.cu_sy_59a8nc8sj62-stroke" data-item-order="-184779" data-item-id="3.cu_sy_59a8nc8sj62" data-item-class="ScenePart Indexed Stroke" data-item-index="3" data-renderer-id="0" transform="translate(255.1090087890625, 189)"><g id="3.cu_sy_59a8nc8sj62-stroke" fill="none" stroke-linecap="round" stroke-linejoin="round" stroke-miterlimit="1.5" stroke="#93c131" stroke-width="2"><g xmlns="http://www.w3.org/2000/svg"><path d="M 251.891 42L 129.891 10L 10 10M 247.638 34.705L 251.911 42.012L 244.605 46.285"></path></g></g></g><g id="g-root-3.cr-small_cr_1uqju3bc8sjr7-stroke" data-item-order="-184778" data-item-id="3.cr-small_cr_1uqju3bc8sjr7" data-item-class="Shape Stroke Fill ScenePart Indexed" data-item-index="3" data-renderer-id="0" transform="translate(195, 159)"><g id="3.cr-small_cr_1uqju3bc8sjr7-stroke" fill="none" stroke-linecap="round" stroke-linejoin="round" stroke-miterlimit="1.5" stroke="#93c131" stroke-width="2"><g xmlns="http://www.w3.org/2000/svg"><path d="M 10 40C 10 56.569 23.431 70 40 70C 56.569 70 70 56.569 70 40C 70 23.431 56.569 10 40 10C 23.431 10 10 23.431 10 40"></path></g></g></g><g id="g-root-2.cu_sy_90wahjc8sidc-stroke" data-item-order="-184775" data-item-id="2.cu_sy_90wahjc8sidc" data-item-class="ScenePart Indexed Stroke" data-item-index="2" data-renderer-id="0" transform="translate(255, 105)"><g id="2.cu_sy_90wahjc8sidc-stroke" fill="none" stroke-linecap="round" stroke-linejoin="round" stroke-miterlimit="1.5" stroke="#3bc482" stroke-width="2"><g xmlns="http://www.w3.org/2000/svg"><path d="M 259 108L 130 10L 10 10M 257.888 99.602L 259.016 107.991L 250.627 109.12"></path></g></g></g><g id="g-root-2.cr-small_cr_59a8nc8sj61-stroke" data-item-order="-184774" data-item-id="2.cr-small_cr_59a8nc8sj61" data-item-class="Shape Stroke Fill ScenePart Indexed" data-item-index="2" data-renderer-id="0" transform="translate(195, 75)"><g id="2.cr-small_cr_59a8nc8sj61-stroke" fill="none" stroke-linecap="round" stroke-linejoin="round" stroke-miterlimit="1.5" stroke="#3bc482" stroke-width="2"><g xmlns="http://www.w3.org/2000/svg"><path d="M 10 40C 10 56.569 23.431 70 40 70C 56.569 70 70 56.569 70 40C 70 23.431 56.569 10 40 10C 23.431 10 10 23.431 10 40"></path></g></g></g><g id="g-root-1.cu_sy_dgpslzc8shl2-stroke" data-item-order="-184771" data-item-id="1.cu_sy_dgpslzc8shl2" data-item-class="ScenePart Indexed Indexed_1 Stroke" data-item-index="1" data-renderer-id="0" transform="translate(255, 21)"><g id="1.cu_sy_dgpslzc8shl2-stroke" fill="none" stroke-linecap="round" stroke-linejoin="round" stroke-miterlimit="1.5" stroke="#17b0e3" stroke-width="2"><g xmlns="http://www.w3.org/2000/svg"><path d="M 274 178L 130 10L 10 10M 274.664 169.577L 274.001 178.015L 265.562 177.352"></path></g></g></g><g id="g-root-1.cr-small_cr_dgpslzc8shl3-stroke" data-item-order="-184770" data-item-id="1.cr-small_cr_dgpslzc8shl3" data-item-class="Shape Stroke Fill ScenePart Indexed Indexed_1" data-item-index="1" data-renderer-id="0" transform="translate(195, -9)"><g id="1.cr-small_cr_dgpslzc8shl3-stroke" fill="none" stroke-linecap="round" stroke-linejoin="round" stroke-miterlimit="1.5" stroke="#17b0e3" stroke-width="2"><g xmlns="http://www.w3.org/2000/svg"><path d="M 10 40C 10 56.569 23.431 70 40 70C 56.569 70 70 56.569 70 40C 70 23.431 56.569 10 40 10C 23.431 10 10 23.431 10 40"></path></g></g></g><g id="g-root-targ_24wt3c8zif6-stroke" data-item-order="0" data-item-id="targ_24wt3c8zif6" data-item-class="Icon Stroke SceneTarget Indexed InsideFill InsideColorFill" data-item-index="2" data-renderer-id="0" transform="translate(207, 87)"><g id="targ_24wt3c8zif6-stroke" fill="none" stroke-linecap="round" stroke-linejoin="round" stroke-miterlimit="1.5" stroke="#3bc482" stroke-width="2"><g xmlns="http://www.w3.org/2000/svg"><path d="M 28 10.75L 28 16.035M 10.75 28L 16.035 28M 28 45.25L 28 39.965M 45.25 28L 39.965 28M 13.75 28C 13.75 35.87 20.13 42.25 28 42.25C 35.87 42.25 42.25 35.87 42.25 28C 42.25 20.13 35.87 13.75 28 13.75C 20.13 13.75 13.75 20.13 13.75 28M 35.851 23.673L 31 28.527C 31.974 31.011 31.072 33.838 28.839 35.299C 26.606 36.76 23.654 36.455 21.767 34.567C 19.881 32.68 19.577 29.728 21.039 27.496C 22.501 25.263 25.328 24.362 27.813 25.338L 32.664 20.485L 35.887 20.485ZM 25.094 30.581C 25.094 30.946 25.39 31.242 25.755 31.242C 26.119 31.242 26.415 30.946 26.414 30.581C 26.415 30.217 26.119 29.921 25.755 29.921C 25.39 29.921 25.094 30.217 25.094 30.581"></path></g></g></g><g id="g-root-tx_highcali_1464pp3c8sirq-stroke" data-item-order="0" data-item-id="tx_highcali_1464pp3c8sirq" data-item-class="Label Stroke SceneTarget Indexed" data-item-index="3" data-renderer-id="0" transform="translate(63, 165)"><g id="tx_highcali_1464pp3c8sirq-stroke" fill="none" stroke-linecap="square" stroke-linejoin="miter" stroke-miterlimit="4" stroke="#484848" stroke-width="2"><g xmlns="http://www.w3.org/2000/svg"><path d="M 28.743 14.945C 25.48 14.945 22.217 14.95 18.954 14.95M 23.84 28.124L 23.84 15.456M 32.618 20.246C 32.982 19.28 34.398 18.567 35.738 18.567C 37.592 18.567 39.094 19.88 39.094 21.499L 39.1 22.957L 39.1 25.571C 39.1 26.614 39.075 27.353 39.377 28.278M 38.72 22.957L 35.992 22.957C 33.489 22.957 32.189 24.343 32.189 25.837C 32.189 27.331 33.427 28.341 35.043 28.341C 37.025 28.341 38.651 26.888 39.051 25.732M 44.066 14.125L 44.066 28.126M 55.627 27.218C 54.654 28.155 53.629 28.339 52.444 28.339C 50.375 28.339 48.512 27.028 48.512 23.456C 48.512 19.884 50.321 18.573 52.39 18.573C 54.458 18.573 56.062 19.63 56.062 23.201L 48.842 23.201M 60.109 18.78L 60.109 28.128M 66.943 28.128L 66.943 22.074C 66.943 21.362 67.039 18.79 64.656 18.587C 62.898 18.437 61.209 19.562 60.433 20.956M 74.689 28.326C 73.28 28.465 72.422 27.732 72.422 26.387L 72.422 16.081M 74.572 18.642L 72.808 18.642M 70.312 18.642L 72.045 18.642M 86.397 23.457C 86.397 26.522 84.526 28.34 82.218 28.34C 79.91 28.34 78.039 26.522 78.039 23.457C 78.039 20.392 79.91 18.573 82.218 18.573C 84.526 18.573 86.397 20.392 86.397 23.457ZM 96.748 20.381C 96.452 19.404 95.298 18.584 93.688 18.584C 91.8 18.584 90.58 19.447 90.489 20.751C 90.384 22.246 91.618 22.822 93.548 23.339C 95.242 23.797 97.185 24.277 97.031 26.122C 96.932 27.31 95.955 28.346 93.598 28.346C 91.692 28.346 90.615 27.53 90.28 26.424M 114.4 28.124L 114.4 14.123M 114.04 26.773C 113.178 27.871 112.08 28.34 110.77 28.34C 108.589 28.34 106.937 27.029 106.937 23.458C 106.937 19.886 108.694 18.575 110.876 18.575C 112.145 18.575 113.355 19.114 114.04 20.175M 125.897 27.218C 124.924 28.155 123.899 28.339 122.714 28.339C 120.645 28.339 118.782 27.028 118.782 23.456C 118.782 19.884 120.591 18.573 122.66 18.573C 124.728 18.573 126.332 19.63 126.332 23.201L 119.112 23.201M 39.434 52.145L 44.382 38.973L 44.97 38.973L 49.934 52.145M 41.251 48.294L 48.11 48.294M 54.046 38.125L 54.046 52.126M 61.929 52.326C 60.52 52.465 59.662 51.732 59.662 50.387L 59.662 40.081M 61.812 42.642L 60.048 42.642M 57.552 42.642L 59.285 42.642M 73.637 47.457C 73.637 50.522 71.766 52.34 69.458 52.34C 67.15 52.34 65.279 50.522 65.279 47.457C 65.279 44.391 67.15 42.573 69.458 42.573C 71.766 42.573 73.637 44.391 73.637 47.457ZM 84.176 52.116L 84.174 38.98L 84.666 38.979L 93.22 52.117L 93.693 52.117L 93.693 38.979M 100.589 37.928L 99.341 39.555M 99.008 42.78L 99.008 52.121M 110.203 42.691L 106.833 52.119L 106.632 52.119L 103.228 42.691M 120.847 51.218C 119.874 52.155 118.849 52.339 117.664 52.339C 115.595 52.339 113.731 51.028 113.731 47.456C 113.731 43.884 115.541 42.573 117.61 42.573C 119.678 42.573 121.282 43.63 121.282 47.201L 114.062 47.201M 125.466 38.125L 125.466 52.126"></path></g></g></g><g id="g-root-chat_v8ma6vc8zk7i-stroke" data-item-order="0" data-item-id="chat_v8ma6vc8zk7i" data-item-class="Icon Stroke SceneTarget Indexed InsideFill InsideColorFill" data-item-index="3" data-renderer-id="0" transform="translate(207, 171)"><g id="chat_v8ma6vc8zk7i-stroke" fill="none" stroke-linecap="round" stroke-linejoin="round" stroke-miterlimit="1.5" stroke="#93c131" stroke-width="2"><g xmlns="http://www.w3.org/2000/svg"><path d="M 27.25 10.75C 28.078 10.75 28.75 11.422 28.75 12.25L 28.75 21.25C 28.75 22.078 28.078 22.75 27.25 22.75L 24.25 22.75L 24.25 26.5L 20.5 22.75L 12.25 22.75C 11.422 22.75 10.75 22.078 10.75 21.25L 10.75 12.25C 10.75 11.422 11.422 10.75 12.25 10.75ZM 44.995 25.75C 43.655 23.43 41.179 22 38.5 22C 35.821 22 33.345 23.43 32.005 25.75M 34.615 13C 36.033 14.446 37.975 15.258 40 15.25C 41.032 15.254 42.053 15.044 43 14.635M 34 15.25C 34 17.735 36.015 19.75 38.5 19.75C 40.985 19.75 43 17.735 43 15.25C 43 12.765 40.985 10.75 38.5 10.75C 36.015 10.75 34 12.765 34 15.25M 23.995 45.25C 22.655 42.93 20.179 41.5 17.5 41.5C 14.821 41.5 12.345 42.93 11.005 45.25M 13.615 32.5C 15.796 34.739 19.137 35.391 22 34.135M 13 34.75C 13 37.235 15.015 39.25 17.5 39.25C 19.985 39.25 22 37.235 22 34.75C 22 32.265 19.985 30.25 17.5 30.25C 15.015 30.25 13 32.265 13 34.75M 25 16.75L 15.25 16.75M 18.25 14.5L 15.25 16.75L 18.25 19M 28.75 28.75C 27.922 28.75 27.25 29.422 27.25 30.25L 27.25 39.25C 27.25 40.078 27.922 40.75 28.75 40.75L 31.75 40.75L 31.75 44.5L 35.5 40.75L 43.75 40.75C 44.578 40.75 45.25 40.078 45.25 39.25L 45.25 30.25C 45.25 29.422 44.578 28.75 43.75 28.75ZM 31 34.75L 40.75 34.75M 37.75 32.5L 40.75 34.75L 37.75 37"></path></g></g></g><g id="g-root-tx_leadersh_vahpg7c8sjkf-stroke" data-item-order="0" data-item-id="tx_leadersh_vahpg7c8sjkf" data-item-class="Label Stroke SceneTarget Indexed" data-item-index="2" data-renderer-id="0" transform="translate(-9, 81)"><g id="tx_leadersh_vahpg7c8sjkf-stroke" fill="none" stroke-linecap="square" stroke-linejoin="miter" stroke-miterlimit="4" stroke="#484848" stroke-width="2"><g xmlns="http://www.w3.org/2000/svg"><path d="M 34.957 25.13C 34.296 27.034 32.508 28.398 30.405 28.398C 27.74 28.398 25.579 26.207 25.579 23.504L 25.579 19.621C 25.579 16.918 27.74 14.727 30.405 14.727C 32.508 14.727 34.296 16.091 34.957 17.995M 47.197 23.457C 47.197 26.522 45.326 28.34 43.018 28.34C 40.71 28.34 38.839 26.522 38.839 23.457C 38.839 20.392 40.71 18.573 43.018 18.573C 45.326 18.573 47.197 20.392 47.197 23.457ZM 51.41 18.814L 51.41 28.162M 58.244 28.162L 58.233 21.47C 58.169 20.526 57.802 19.078 55.928 18.649C 53.988 18.205 52.508 19.248 51.772 20.595M 65.079 28.162L 65.079 22.108C 65.079 21.396 65.194 19.206 62.763 18.649C 60.734 18.184 59.199 19.347 58.499 20.783M 69.853 18.774L 69.853 32.393M 70.219 20.124C 71.102 19.027 72.283 18.558 73.592 18.558C 75.773 18.558 77.352 19.904 77.352 23.476C 77.352 27.047 75.668 28.323 73.486 28.323C 72.215 28.323 70.929 27.783 70.219 26.719M 85.235 18.609C 83.854 18.419 82.606 19.319 81.964 20.619M 81.609 18.773L 81.609 28.123M 96.537 23.457C 96.537 26.522 94.666 28.34 92.358 28.34C 90.05 28.34 88.179 26.522 88.179 23.457C 88.179 20.392 90.05 18.573 92.358 18.573C 94.666 18.573 96.537 20.392 96.537 23.457ZM 100.75 18.814L 100.75 28.162M 107.584 28.162L 107.573 21.47C 107.509 20.526 107.142 19.078 105.268 18.649C 103.328 18.205 101.848 19.248 101.112 20.595M 114.419 28.162L 114.419 22.108C 114.419 21.396 114.534 19.206 112.103 18.649C 110.074 18.184 108.539 19.347 107.839 20.783M 125.847 27.218C 124.874 28.155 123.849 28.339 122.663 28.339C 120.595 28.339 118.731 27.028 118.731 23.456C 118.731 19.884 120.541 18.573 122.61 18.573C 124.678 18.573 126.282 19.63 126.282 23.201L 119.062 23.201M 133.299 28.326C 131.89 28.465 131.032 27.732 131.032 26.387L 131.032 16.081M 133.182 18.642L 131.418 18.642M 128.922 18.642L 130.655 18.642M 137.388 14.971L 137.412 14.971M 137.372 18.804L 137.372 28.145M 142.32 18.814L 142.32 28.162M 149.154 28.162L 149.143 21.47C 149.079 20.526 148.712 19.078 146.838 18.649C 144.898 18.205 143.418 19.248 142.682 20.595M 155.989 28.162L 155.989 22.108C 155.989 21.396 156.104 19.206 153.673 18.649C 151.644 18.184 150.109 19.347 149.409 20.783M 167.417 27.218C 166.444 28.155 165.419 28.339 164.233 28.339C 162.165 28.339 160.301 27.028 160.301 23.456C 160.301 19.884 162.111 18.573 164.18 18.573C 166.248 18.573 167.852 19.63 167.852 23.201L 160.632 23.201M 171.899 18.78L 171.899 28.128M 178.733 28.128L 178.733 22.074C 178.733 21.362 178.829 18.79 176.446 18.587C 174.688 18.437 172.999 19.562 172.223 20.956M 186.479 28.326C 185.07 28.465 184.212 27.732 184.212 26.387L 184.212 16.081M 186.362 18.642L 184.598 18.642M 182.102 18.642L 183.835 18.642M 198.187 23.457C 198.187 26.522 196.316 28.34 194.008 28.34C 191.7 28.34 189.829 26.522 189.829 23.457C 189.829 20.392 191.7 18.573 194.008 18.573C 196.316 18.573 198.187 20.392 198.187 23.457ZM 88.15 52.124L 88.15 38.123M 87.79 50.773C 86.928 51.871 85.83 52.34 84.52 52.34C 82.339 52.34 80.687 51.029 80.687 47.458C 80.687 43.886 82.444 42.575 84.626 42.575C 85.895 42.575 87.105 43.114 87.79 44.175M 93.118 44.246C 93.482 43.28 94.898 42.567 96.238 42.567C 98.092 42.567 99.594 43.88 99.594 45.499L 99.6 46.957L 99.6 49.571C 99.6 50.614 99.575 51.353 99.877 52.278M 99.22 46.957L 96.492 46.957C 93.989 46.957 92.689 48.343 92.689 49.837C 92.689 51.332 93.927 52.341 95.543 52.341C 97.525 52.341 99.151 50.888 99.551 49.732M 117.957 52.145L 110.808 52.145L 110.766 45.3L 110.766 38.938M 121.918 38.971L 121.942 38.971M 121.902 42.804L 121.902 52.145M 133.83 52.124L 133.83 38.123M 133.47 50.773C 132.608 51.871 131.51 52.34 130.2 52.34C 128.019 52.34 126.367 51.029 126.367 47.458C 126.367 43.886 128.124 42.575 130.306 42.575C 131.575 42.575 132.785 43.114 133.47 44.175M 145.327 51.218C 144.354 52.155 143.329 52.339 142.144 52.339C 140.075 52.339 138.212 51.028 138.212 47.456C 138.212 43.884 140.021 42.573 142.09 42.573C 144.158 42.573 145.762 43.63 145.762 47.201L 138.542 47.201M 153.415 42.609C 152.034 42.419 150.786 43.319 150.144 44.619M 149.789 42.773L 149.789 52.123M 157.038 44.246C 157.402 43.28 158.818 42.567 160.158 42.567C 162.012 42.567 163.514 43.88 163.514 45.499L 163.52 46.957L 163.52 49.571C 163.52 50.614 163.495 51.353 163.797 52.278M 163.14 46.957L 160.412 46.957C 157.909 46.957 156.609 48.343 156.609 49.837C 156.609 51.332 157.847 52.341 159.463 52.341C 161.445 52.341 163.071 50.888 163.471 49.732M 168.349 42.78L 168.349 52.128M 175.183 52.128L 175.183 46.074C 175.183 45.362 175.279 42.79 172.896 42.587C 171.138 42.437 169.449 43.562 168.673 44.956M 182.746 56.478C 183.383 56.579 184.279 56.251 184.383 55.403C 184.483 54.593 183.956 54.02 183.183 53.885L 183.397 52.504M 186.727 50.254C 186.355 51.649 184.787 52.339 183.318 52.339C 181.18 52.339 179.415 51.028 179.415 47.456C 179.415 43.884 181.284 42.573 183.421 42.573C 184.928 42.573 186.578 43.41 186.812 44.915M 191.068 44.246C 191.432 43.28 192.848 42.567 194.188 42.567C 196.042 42.567 197.544 43.88 197.544 45.499L 197.55 46.957L 197.55 49.571C 197.55 50.614 197.525 51.353 197.827 52.278M 197.17 46.957L 194.442 46.957C 191.939 46.957 190.639 48.343 190.639 49.837C 190.639 51.332 191.877 52.341 193.493 52.341C 195.475 52.341 197.101 50.888 197.501 49.732"></path></g></g></g><g id="g-root-grap_1lpx15jc8zksm-stroke" data-item-order="0" data-item-id="grap_1lpx15jc8zksm" data-item-class="Icon Stroke SceneTarget SceneEnd InsideFill" data-item-index="none" data-renderer-id="0" transform="translate(519, 207)"><g id="grap_1lpx15jc8zksm-stroke" fill="none" stroke-linecap="round" stroke-linejoin="round" stroke-miterlimit="1.5" stroke="#484848" stroke-width="2"><g xmlns="http://www.w3.org/2000/svg"><path d="M 18.5 57L 35.5 30C 35.976 29.377 36.716 29.012 37.5 29.012C 38.284 29.012 39.024 29.377 39.5 30L 56.5 57ZM 18.5 57L 11.5 57L 18.5 46C 18.989 45.391 19.72 45.026 20.5 45C 21.28 45.026 22.011 45.391 22.5 46L 23.8 48.6M 27.41 42.848L 32.096 46.812C 32.89 47.483 34.067 47.434 34.802 46.698L 36.086 45.414C 36.867 44.633 38.133 44.633 38.914 45.414L 40.198 46.698C 40.933 47.434 42.11 47.483 42.904 46.812L 47.6 42.848M 37.5 29L 37.5 11M 37.5 11L 48.5 11C 49.052 11 49.5 11.448 49.5 12L 49.5 20C 49.5 20.552 49.052 21 48.5 21L 37.5 21M 49.5 15L 54.5 15C 55.052 15 55.5 15.448 55.5 16L 55.5 24C 55.5 24.552 55.052 25 54.5 25L 48.5 25C 47.948 25 47.5 24.552 47.5 24L 47.5 21"></path></g></g></g><g id="g-root-tx_successf_zofsbbc8skjm-stroke" data-item-order="0" data-item-id="tx_successf_zofsbbc8skjm" data-item-class="Label Stroke SceneTarget SceneEnd" data-item-index="none" data-renderer-id="0" transform="translate(591, 207)"><g id="tx_successf_zofsbbc8skjm-stroke" fill="none" stroke-linecap="square" stroke-linejoin="miter" stroke-miterlimit="4" stroke="#484848" stroke-width="2"><g xmlns="http://www.w3.org/2000/svg"><path d="M 23.173 14.945C 19.91 14.945 16.647 14.95 13.384 14.95M 18.27 28.124L 18.27 15.456M 30.535 18.609C 29.154 18.419 27.906 19.319 27.264 20.619M 26.909 18.773L 26.909 28.123M 34.158 20.246C 34.522 19.28 35.938 18.567 37.278 18.567C 39.132 18.567 40.634 19.88 40.634 21.499L 40.64 22.957L 40.64 25.571C 40.64 26.614 40.615 27.353 40.917 28.278M 40.26 22.957L 37.532 22.957C 35.029 22.957 33.729 24.343 33.729 25.837C 33.729 27.331 34.967 28.341 36.583 28.341C 38.565 28.341 40.191 26.888 40.591 25.732M 45.469 18.78L 45.469 28.128M 52.303 28.128L 52.303 22.074C 52.303 21.362 52.399 18.79 50.016 18.587C 48.258 18.437 46.569 19.562 45.793 20.956M 63.238 20.381C 62.942 19.404 61.788 18.584 60.178 18.584C 58.29 18.584 57.07 19.447 56.979 20.751C 56.874 22.246 58.108 22.822 60.038 23.339C 61.732 23.797 63.675 24.277 63.521 26.122C 63.422 27.31 62.445 28.346 60.088 28.346C 58.182 28.346 57.105 27.53 56.77 26.424M 72.004 13.926C 71.836 13.908 71.555 13.907 71.427 13.907C 69.848 13.907 68.85 15.035 68.85 16.425L 68.85 28.129M 71.275 18.664L 69.186 18.664M 66.998 18.664L 68.524 18.664M 82.767 23.457C 82.767 26.522 80.896 28.34 78.588 28.34C 76.28 28.34 74.409 26.522 74.409 23.457C 74.409 20.392 76.28 18.573 78.588 18.573C 80.896 18.573 82.767 20.392 82.767 23.457ZM 90.565 18.609C 89.184 18.419 87.936 19.319 87.294 20.619M 86.939 18.773L 86.939 28.123M 94.09 18.814L 94.09 28.162M 100.924 28.162L 100.913 21.47C 100.849 20.526 100.482 19.078 98.608 18.649C 96.668 18.205 95.188 19.248 94.452 20.595M 107.759 28.162L 107.759 22.108C 107.759 21.396 107.874 19.206 105.443 18.649C 103.414 18.184 101.88 19.347 101.179 20.783M 112.658 20.246C 113.022 19.28 114.438 18.567 115.778 18.567C 117.632 18.567 119.134 19.88 119.134 21.499L 119.14 22.957L 119.14 25.571C 119.14 26.614 119.115 27.353 119.417 28.278M 118.76 22.957L 116.032 22.957C 113.529 22.957 112.229 24.343 112.229 25.837C 112.229 27.331 113.467 28.341 115.083 28.341C 117.065 28.341 118.691 26.888 119.091 25.732M 126.756 32.478C 127.393 32.579 128.289 32.251 128.393 31.403C 128.493 30.593 127.966 30.02 127.193 29.885L 127.407 28.504M 130.737 26.254C 130.365 27.649 128.797 28.339 127.328 28.339C 125.19 28.339 123.425 27.028 123.425 23.456C 123.425 19.884 125.294 18.573 127.431 18.573C 128.938 18.573 130.588 19.41 130.822 20.915M 135.706 15.346C 135.889 14.888 136.482 14.37 137.193 14.37C 138.16 14.37 138.712 15.346 139.77 15.346C 141.059 15.346 141.394 14.371 141.394 14.371M 135.078 20.246C 135.442 19.28 136.858 18.567 138.198 18.567C 140.052 18.567 141.554 19.88 141.554 21.499L 141.56 22.957L 141.56 25.571C 141.56 26.614 141.535 27.353 141.837 28.278M 141.18 22.957L 138.452 22.957C 135.949 22.957 134.649 24.343 134.649 25.837C 134.649 27.331 135.887 28.341 137.503 28.341C 139.485 28.341 141.111 26.888 141.511 25.732M 154.177 23.457C 154.177 26.522 152.306 28.34 149.998 28.34C 147.69 28.34 145.819 26.522 145.819 23.457C 145.819 20.392 147.69 18.573 149.998 18.573C 152.306 18.573 154.177 20.392 154.177 23.457ZM 14.734 52.18L 14.734 38.945M 15.177 45.18L 19.381 45.18M 15.177 38.945L 19.327 38.945C 21.077 38.945 22.39 39.602 22.39 42.008C 22.39 43.933 20.603 44.924 19.71 45.18C 20.749 45.253 22.827 46.066 22.827 48.734C 22.827 51.403 20.749 52.143 19.71 52.18L 15.177 52.18M 34.077 51.218C 33.104 52.155 32.079 52.339 30.894 52.339C 28.825 52.339 26.962 51.028 26.962 47.456C 26.962 43.884 28.771 42.573 30.84 42.573C 32.908 42.573 34.512 43.63 34.512 47.201L 27.292 47.201M 38.58 42.814L 38.58 52.162M 45.414 52.162L 45.403 45.47C 45.339 44.526 44.972 43.078 43.098 42.649C 41.158 42.205 39.678 43.248 38.942 44.595M 52.249 52.162L 52.249 46.108C 52.249 45.396 52.364 43.206 49.933 42.649C 47.904 42.184 46.369 43.347 45.669 44.783M 55.911 46.65L 59.166 46.65M 71.056 41.457C 70.625 39.893 69.005 38.732 66.916 38.732C 64.468 38.732 62.767 39.931 62.767 41.754C 62.767 43.724 64.231 44.685 66.736 45.406C 68.933 46.045 71.17 46.813 71.17 49.288C 71.17 50.951 69.857 52.346 66.8 52.346C 64.328 52.346 62.747 51.106 62.383 49.483M 82.137 52.115L 82.136 42.767M 75.302 42.767L 75.302 48.821C 75.302 49.533 75.207 52.096 77.589 52.307C 79.68 52.493 80.953 51.653 81.655 50.47M 93.752 50.254C 93.38 51.649 91.812 52.339 90.343 52.339C 88.206 52.339 86.44 51.028 86.44 47.456C 86.44 43.884 88.309 42.573 90.447 42.573C 91.954 42.573 93.604 43.41 93.837 44.915M 104.567 51.218C 103.594 52.155 102.569 52.339 101.384 52.339C 99.315 52.339 97.452 51.028 97.452 47.456C 97.452 43.884 99.261 42.573 101.33 42.573C 103.398 42.573 105.002 43.63 105.002 47.201L 97.782 47.201M 116.05 52.124L 116.05 38.123M 115.69 50.773C 114.828 51.871 113.73 52.34 112.42 52.34C 110.239 52.34 108.587 51.029 108.587 47.458C 108.587 43.886 110.344 42.575 112.526 42.575C 113.795 42.575 115.005 43.114 115.69 44.175M 121.078 38.971L 121.102 38.971M 121.062 42.804L 121.062 52.145M 132.99 52.124L 132.99 38.123M 132.63 50.773C 131.768 51.871 130.67 52.34 129.36 52.34C 127.179 52.34 125.527 51.029 125.527 47.458C 125.527 43.886 127.284 42.575 129.466 42.575C 130.735 42.575 131.945 43.114 132.63 44.175M 137.958 44.246C 138.322 43.28 139.738 42.567 141.078 42.567C 142.932 42.567 144.434 43.88 144.434 45.499L 144.44 46.957L 144.44 49.571C 144.44 50.614 144.415 51.353 144.716 52.278M 144.06 46.957L 141.332 46.957C 138.829 46.957 137.529 48.343 137.529 49.837C 137.529 51.332 138.767 52.341 140.383 52.341C 142.365 52.341 143.991 50.888 144.391 49.732"></path></g></g></g><g id="g-root-ente_zjfzmfc8zk0f-stroke" data-item-order="0" data-item-id="ente_zjfzmfc8zk0f" data-item-class="Icon Stroke SceneTarget Indexed InsideFill InsideColorFill" data-item-index="6" data-renderer-id="0" transform="translate(207, 423)"><g id="ente_zjfzmfc8zk0f-stroke" fill="none" stroke-linecap="round" stroke-linejoin="round" stroke-miterlimit="1.5" stroke="#e15e5a" stroke-width="2"><g xmlns="http://www.w3.org/2000/svg"><path d="M 33.291 31.958L 33.291 40.847C 33.291 43.279 31.319 45.25 28.888 45.25L 18.36 45.25C 15.928 45.25 13.957 43.279 13.957 40.847L 13.957 15.82C 13.958 13.389 15.929 11.419 18.36 11.419L 24.832 11.419M 13.957 38L 33.291 38M 31.368 21.409C 32.122 22.163 32.123 23.387 31.368 24.142C 30.613 24.896 29.39 24.896 28.635 24.142C 27.881 23.387 27.881 22.163 28.636 21.409C 29.39 20.654 30.613 20.654 31.368 21.409M 42.027 14.451L 36.087 20.39C 37.218 23.274 36.171 26.556 33.58 28.253C 30.988 29.949 27.562 29.596 25.371 27.405C 23.181 25.215 22.827 21.788 24.524 19.197C 26.221 16.605 29.502 15.559 32.386 16.69L 38.326 10.75L 42.043 10.75ZM 23.461 41.432C 23.461 41.743 23.713 41.995 24.024 41.995C 24.334 41.995 24.586 41.743 24.586 41.432C 24.586 41.122 24.334 40.87 24.024 40.87C 23.713 40.87 23.461 41.122 23.461 41.432"></path></g></g></g><g id="g-root-tx_agilegov_1hgyqzbc8skcl-stroke" data-item-order="0" data-item-id="tx_agilegov_1hgyqzbc8skcl" data-item-class="Label Stroke SceneTarget Indexed" data-item-index="4" data-renderer-id="0" transform="translate(63, 249)"><g id="tx_agilegov_1hgyqzbc8skcl-stroke" fill="none" stroke-linecap="square" stroke-linejoin="miter" stroke-miterlimit="4" stroke="#484848" stroke-width="2"><g xmlns="http://www.w3.org/2000/svg"><path d="M 24.457 22.37L 28.031 22.336L 28.02 26.847C 26.813 28.019 25.666 28.398 23.349 28.398C 20.684 28.398 18.523 26.207 18.523 23.504L 18.523 19.621C 18.523 16.918 20.684 14.727 23.349 14.727C 25.356 14.727 27.078 15.97 27.805 17.74M 40.727 23.457C 40.727 26.522 38.856 28.34 36.548 28.34C 34.24 28.34 32.369 26.522 32.369 23.457C 32.369 20.392 34.24 18.573 36.548 18.573C 38.856 18.573 40.727 20.392 40.727 23.457ZM 51.073 18.691L 47.703 28.119L 47.502 28.119L 44.098 18.691M 61.717 27.218C 60.744 28.155 59.719 28.339 58.534 28.339C 56.465 28.339 54.602 27.028 54.602 23.456C 54.602 19.884 56.411 18.573 58.48 18.573C 60.548 18.573 62.152 19.63 62.152 23.201L 54.932 23.201M 69.805 18.609C 68.424 18.419 67.176 19.319 66.534 20.619M 66.179 18.773L 66.179 28.123M 73.309 18.78L 73.309 28.128M 80.143 28.128L 80.143 22.074C 80.143 21.362 80.239 18.79 77.856 18.587C 76.098 18.437 74.409 19.562 73.633 20.956M 85.038 20.246C 85.402 19.28 86.818 18.567 88.158 18.567C 90.012 18.567 91.514 19.88 91.514 21.499L 91.52 22.957L 91.52 25.571C 91.52 26.614 91.495 27.353 91.797 28.278M 91.14 22.957L 88.412 22.957C 85.909 22.957 84.609 24.343 84.609 25.837C 84.609 27.331 85.847 28.341 87.463 28.341C 89.445 28.341 91.071 26.888 91.471 25.732M 96.349 18.78L 96.349 28.128M 103.183 28.128L 103.183 22.074C 103.183 21.362 103.279 18.79 100.896 18.587C 99.138 18.437 97.449 19.562 96.673 20.956M 110.746 32.478C 111.383 32.579 112.279 32.251 112.383 31.403C 112.483 30.593 111.956 30.02 111.183 29.885L 111.397 28.504M 114.727 26.254C 114.355 27.649 112.787 28.339 111.318 28.339C 109.18 28.339 107.415 27.028 107.415 23.456C 107.415 19.884 109.284 18.573 111.421 18.573C 112.928 18.573 114.578 19.41 114.812 20.915M 119.068 20.246C 119.432 19.28 120.848 18.567 122.188 18.567C 124.042 18.567 125.544 19.88 125.544 21.499L 125.55 22.957L 125.55 25.571C 125.55 26.614 125.525 27.353 125.826 28.278M 125.17 22.957L 122.442 22.957C 119.939 22.957 118.639 24.343 118.639 25.837C 118.639 27.331 119.877 28.341 121.493 28.341C 123.475 28.341 125.101 26.888 125.501 25.732M 93.994 52.145L 98.942 38.973L 99.53 38.973L 104.494 52.145M 95.811 48.294L 102.67 48.294M 115.479 42.652L 115.479 52.654C 115.479 57.351 110.186 57.001 108.751 55.47M 115.145 50.573C 114.465 51.661 113.241 52.214 111.955 52.214C 109.774 52.214 108.017 50.903 108.017 47.331C 108.017 43.76 109.668 42.449 111.85 42.449C 113.118 42.449 114.423 43.129 115.145 44.502M 120.418 38.971L 120.442 38.971M 120.402 42.804L 120.402 52.145M 125.466 38.125L 125.466 52.126"></path></g></g></g><g id="g-root-scru_dcyy3bc8zk01-stroke" data-item-order="0" data-item-id="scru_dcyy3bc8zk01" data-item-class="Icon Stroke SceneTarget Indexed InsideFill InsideColorFill" data-item-index="4" data-renderer-id="0" transform="translate(207, 255)"><g id="scru_dcyy3bc8zk01-stroke" fill="none" stroke-linecap="round" stroke-linejoin="round" stroke-miterlimit="1.5" stroke="#e3cd09" stroke-width="2"><g xmlns="http://www.w3.org/2000/svg"><path d="M 11.134 42.951L 44.866 42.951M 41.8 40.65L 44.866 42.951L 41.8 45.25M 15.957 34.118C 15.957 29.241 19.911 25.286 24.789 25.286C 29.667 25.287 33.621 29.242 33.62 34.119C 33.62 38.997 29.665 42.951 24.787 42.951M 13.434 32.857L 15.957 35.38L 18.479 32.857M 36.142 18.319C 36.141 14.575 33.404 11.393 29.701 10.835C 25.999 10.276 22.444 12.507 21.339 16.085C 20.233 19.662 21.909 23.51 25.281 25.138M 38.303 17.237L 36.142 19.401L 33.979 17.237"></path></g></g></g><g id="g-root-path_1lrsgevc8zjsz-stroke" data-item-order="0" data-item-id="path_1lrsgevc8zjsz" data-item-class="Icon Stroke SceneTarget Indexed Indexed_1 InsideFill InsideColorFill" data-item-index="1" data-renderer-id="0" transform="translate(207, 3)"><g id="path_1lrsgevc8zjsz-stroke" fill="none" stroke-linecap="round" stroke-linejoin="round" stroke-miterlimit="1.5" stroke="#17b0e3" stroke-width="2"><g xmlns="http://www.w3.org/2000/svg"><path d="M 41.411 14.174C 42.57 15.101 43.457 16.322 43.979 17.71M 43.928 23.66C 43.382 25.04 42.473 26.245 41.298 27.151M 14.589 43.326C 13.43 42.399 12.543 41.178 12.021 39.79M 12.071 33.84C 12.618 32.46 13.527 31.255 14.703 30.349M 34 12.25L 36.25 12.25M 21.25 45.25L 23.5 45.25M 31 28.75L 35.5 28.75M 20.5 28.75L 25 28.75M 28 19L 28 45.25M 23.5 23.5L 28 19L 32.5 23.5M 25.75 13C 25.75 14.243 26.757 15.25 28 15.25C 29.243 15.25 30.25 14.243 30.25 13C 30.25 11.757 29.243 10.75 28 10.75C 26.757 10.75 25.75 11.757 25.75 13Z"></path></g></g></g><g id="g-root-tx_effectiv_1usf9cnc8siro-stroke" data-item-order="0" data-item-id="tx_effectiv_1usf9cnc8siro" data-item-class="Label Stroke SceneTarget Indexed" data-item-index="5" data-renderer-id="0" transform="translate(27, 333)"><g id="tx_effectiv_1usf9cnc8siro-stroke" fill="none" stroke-linecap="square" stroke-linejoin="miter" stroke-miterlimit="4" stroke="#484848" stroke-width="2"><g xmlns="http://www.w3.org/2000/svg"><path d="M 22.221 28.117L 22.229 14.978L 23.198 14.978L 28.501 28.115L 28.817 28.115L 34.136 14.978L 35.106 14.978L 35.1 28.117M 47.997 23.457C 47.997 26.522 46.126 28.34 43.818 28.34C 41.51 28.34 39.639 26.522 39.639 23.457C 39.639 20.392 41.51 18.573 43.818 18.573C 46.126 18.573 47.997 20.392 47.997 23.457ZM 52.189 18.78L 52.189 28.128M 59.023 28.128L 59.023 22.074C 59.023 21.362 59.119 18.79 56.736 18.587C 54.978 18.437 53.289 19.562 52.513 20.956M 63.978 14.971L 64.002 14.971M 63.962 18.804L 63.962 28.145M 71.859 28.326C 70.45 28.465 69.592 27.732 69.592 26.387L 69.592 16.081M 71.742 18.642L 69.978 18.642M 67.482 18.642L 69.215 18.642M 83.567 23.457C 83.567 26.522 81.696 28.34 79.388 28.34C 77.08 28.34 75.209 26.522 75.209 23.457C 75.209 20.392 77.08 18.573 79.388 18.573C 81.696 18.573 83.567 20.392 83.567 23.457ZM 91.365 18.609C 89.984 18.419 88.736 19.319 88.094 20.619M 87.739 18.773L 87.739 28.123M 94.988 20.246C 95.352 19.28 96.768 18.567 98.108 18.567C 99.962 18.567 101.464 19.88 101.464 21.499L 101.47 22.957L 101.47 25.571C 101.47 26.614 101.445 27.353 101.746 28.278M 101.09 22.957L 98.362 22.957C 95.859 22.957 94.559 24.343 94.559 25.837C 94.559 27.331 95.797 28.341 97.412 28.341C 99.395 28.341 101.021 26.888 101.421 25.732M 106.32 18.814L 106.32 28.162M 113.154 28.162L 113.143 21.47C 113.079 20.526 112.712 19.078 110.838 18.649C 108.898 18.205 107.418 19.248 106.682 20.595M 119.989 28.162L 119.989 22.108C 119.989 21.396 120.104 19.206 117.673 18.649C 115.644 18.184 114.109 19.347 113.409 20.783M 131.417 27.218C 130.444 28.155 129.419 28.339 128.234 28.339C 126.165 28.339 124.301 27.028 124.301 23.456C 124.301 19.884 126.111 18.573 128.18 18.573C 130.248 18.573 131.852 19.63 131.852 23.201L 124.632 23.201M 135.899 18.78L 135.899 28.128M 142.733 28.128L 142.733 22.074C 142.733 21.362 142.829 18.79 140.446 18.587C 138.688 18.437 136.999 19.562 136.223 20.956M 150.479 28.326C 149.07 28.465 148.212 27.732 148.212 26.387L 148.212 16.081M 150.362 18.642L 148.598 18.642M 146.102 18.642L 147.835 18.642M 162.187 23.457C 162.187 26.522 160.316 28.34 158.008 28.34C 155.7 28.34 153.829 26.522 153.829 23.457C 153.829 20.392 155.7 18.573 158.008 18.573C 160.316 18.573 162.187 20.392 162.187 23.457ZM 117.357 52.137L 109.794 52.142L 109.794 38.95C 110.742 38.95 115.916 38.95 117.316 38.95M 116.304 45.297L 110.258 45.297M 125.514 37.926C 125.346 37.908 125.065 37.907 124.937 37.907C 123.358 37.907 122.36 39.035 122.36 40.425L 122.36 52.129M 124.785 42.664L 122.696 42.664M 120.508 42.664L 122.034 42.664M 128.658 38.971L 128.682 38.971M 128.642 42.804L 128.642 52.145M 140.382 50.254C 140.01 51.649 138.442 52.339 136.973 52.339C 134.836 52.339 133.07 51.028 133.07 47.456C 133.07 43.884 134.939 42.573 137.077 42.573C 138.584 42.573 140.234 43.41 140.467 44.915M 144.668 44.246C 145.032 43.28 146.448 42.567 147.788 42.567C 149.642 42.567 151.144 43.88 151.144 45.499L 151.15 46.957L 151.15 49.571C 151.15 50.614 151.125 51.353 151.426 52.278M 150.77 46.957L 148.042 46.957C 145.539 46.957 144.239 48.343 144.239 49.837C 144.239 51.332 145.477 52.341 147.092 52.341C 149.075 52.341 150.701 50.888 151.101 49.732M 155.459 42.78L 162.136 42.78L 162.136 42.936L 155.374 51.904L 155.374 52.128L 162.429 52.128"></path></g></g></g><g id="g-root-1_qofggnc8zif4-stroke" data-item-order="0" data-item-id="1_qofggnc8zif4" data-item-class="Icon Stroke SceneTarget Indexed InsideFill InsideColorFill" data-item-index="5" data-renderer-id="0" transform="translate(207, 339)"><g id="1_qofggnc8zif4-stroke" fill="none" stroke-linecap="round" stroke-linejoin="round" stroke-miterlimit="1.5" stroke="#dd8433" stroke-width="2"><g xmlns="http://www.w3.org/2000/svg"><path d="M 10.75 17.5C 10.75 21.228 13.772 24.25 17.5 24.25C 21.228 24.25 24.25 21.228 24.25 17.5C 24.25 13.772 21.228 10.75 17.5 10.75C 13.772 10.75 10.75 13.772 10.75 17.5M 31.75 17.5C 31.75 21.228 34.772 24.25 38.5 24.25C 42.228 24.25 45.25 21.228 45.25 17.5C 45.25 13.772 42.228 10.75 38.5 10.75C 34.772 10.75 31.75 13.772 31.75 17.5M 10.75 38.5C 10.75 42.228 13.772 45.25 17.5 45.25C 21.228 45.25 24.25 42.228 24.25 38.5C 24.25 34.772 21.228 31.75 17.5 31.75C 13.772 31.75 10.75 34.772 10.75 38.5M 31.75 38.5C 31.75 42.228 34.772 45.25 38.5 45.25C 42.228 45.25 45.25 42.228 45.25 38.5C 45.25 34.772 42.228 31.75 38.5 31.75C 34.772 31.75 31.75 34.772 31.75 38.5"></path></g></g></g><g id="g-root-tx_business_dhyqs7c8sjrf-stroke" data-item-order="0" data-item-id="tx_business_dhyqs7c8sjrf" data-item-class="Label Stroke SceneTarget Indexed" data-item-index="6" data-renderer-id="0" transform="translate(-9, 405)"><g id="tx_business_dhyqs7c8sjrf-stroke" fill="none" stroke-linecap="square" stroke-linejoin="miter" stroke-miterlimit="4" stroke="#484848" stroke-width="2"><g xmlns="http://www.w3.org/2000/svg"><path d="M 35.863 26.945C 32.6 26.945 29.337 26.95 26.074 26.95M 30.96 40.124L 30.96 27.456M 46.267 39.218C 45.294 40.155 44.269 40.339 43.084 40.339C 41.015 40.339 39.152 39.028 39.152 35.456C 39.152 31.884 40.961 30.573 43.03 30.573C 45.098 30.573 46.702 31.63 46.702 35.201L 39.482 35.201M 57.562 38.254C 57.19 39.649 55.622 40.339 54.153 40.339C 52.016 40.339 50.25 39.028 50.25 35.456C 50.25 31.884 52.119 30.573 54.257 30.573C 55.764 30.573 57.414 31.41 57.647 32.915M 61.729 30.78L 61.729 40.128M 68.563 40.128L 68.563 34.074C 68.563 33.362 68.659 30.79 66.276 30.587C 64.518 30.437 62.829 31.562 62.053 32.956M 81.137 35.457C 81.137 38.522 79.266 40.34 76.958 40.34C 74.65 40.34 72.779 38.522 72.779 35.457C 72.779 32.392 74.65 30.573 76.958 30.573C 79.266 30.573 81.137 32.392 81.137 35.457ZM 85.466 26.125L 85.466 40.126M 98.177 35.457C 98.177 38.522 96.306 40.34 93.998 40.34C 91.69 40.34 89.819 38.522 89.819 35.457C 89.819 32.392 91.69 30.573 93.998 30.573C 96.306 30.573 98.177 32.392 98.177 35.457ZM 109.379 30.652L 109.379 40.654C 109.379 45.351 104.086 45.001 102.651 43.47M 109.045 38.573C 108.365 39.661 107.141 40.214 105.855 40.214C 103.674 40.214 101.917 38.903 101.917 35.331C 101.917 31.76 103.568 30.449 105.75 30.449C 107.018 30.449 108.323 31.129 109.045 32.502M 114.318 26.971L 114.342 26.971M 114.302 30.804L 114.302 40.145M 119.348 32.246C 119.712 31.28 121.128 30.567 122.468 30.567C 124.322 30.567 125.824 31.88 125.824 33.499L 125.83 34.957L 125.83 37.571C 125.83 38.614 125.805 39.353 126.107 40.278M 125.45 34.957L 122.722 34.957C 120.219 34.957 118.919 36.343 118.919 37.837C 118.919 39.331 120.157 40.341 121.773 40.341C 123.755 40.341 125.381 38.888 125.781 37.732M 142.497 34.37L 146.071 34.336L 146.06 38.847C 144.853 40.019 143.706 40.398 141.389 40.398C 138.724 40.398 136.563 38.207 136.563 35.504L 136.563 31.621C 136.563 28.918 138.724 26.727 141.389 26.727C 143.396 26.727 145.118 27.97 145.845 29.74M 157.777 40.115L 157.776 30.767M 150.942 30.767L 150.942 36.821C 150.942 37.533 150.847 40.096 153.229 40.308C 155.32 40.493 156.593 39.653 157.295 38.47M 162.758 26.971L 162.782 26.971M 162.742 30.804L 162.742 40.145M 167.788 32.246C 168.152 31.28 169.568 30.567 170.908 30.567C 172.762 30.567 174.264 31.88 174.264 33.499L 174.27 34.957L 174.27 37.571C 174.27 38.614 174.245 39.353 174.546 40.278M 173.89 34.957L 171.162 34.957C 168.659 34.957 167.359 36.343 167.359 37.837C 167.359 39.331 168.597 40.341 170.213 40.341C 172.195 40.341 173.821 38.888 174.221 37.732M 186.1 40.124L 186.1 26.123M 185.74 38.773C 184.878 39.871 183.78 40.34 182.47 40.34C 180.289 40.34 178.637 39.029 178.637 35.458C 178.637 31.886 180.394 30.575 182.576 30.575C 183.845 30.575 185.055 31.114 185.74 32.175M 191.068 32.246C 191.432 31.28 192.848 30.567 194.188 30.567C 196.042 30.567 197.544 31.88 197.544 33.499L 197.55 34.957L 197.55 37.571C 197.55 38.614 197.525 39.353 197.827 40.278M 197.17 34.957L 194.442 34.957C 191.939 34.957 190.639 36.343 190.639 37.837C 190.639 39.331 191.877 40.341 193.493 40.341C 195.475 40.341 197.101 38.888 197.501 37.732M 78.483 54.774L 78.483 68.393M 78.849 56.124C 79.732 55.027 80.913 54.558 82.222 54.558C 84.403 54.558 85.982 55.904 85.982 59.476C 85.982 63.047 84.298 64.323 82.116 64.323C 80.845 64.323 79.559 63.783 78.849 62.72M 96.907 63.218C 95.934 64.155 94.909 64.339 93.724 64.339C 91.655 64.339 89.792 63.028 89.792 59.456C 89.792 55.884 91.601 54.573 93.67 54.573C 95.738 54.573 97.342 55.63 97.342 59.201L 90.122 59.201M 101.526 50.125L 101.526 64.126M 114.237 59.457C 114.237 62.522 112.366 64.34 110.058 64.34C 107.75 64.34 105.879 62.522 105.879 59.457C 105.879 56.391 107.75 54.573 110.058 54.573C 112.366 54.573 114.237 56.391 114.237 59.457ZM 124.776 64.116L 124.774 50.98L 125.266 50.979L 133.82 64.117L 134.293 64.117L 134.293 50.979M 146.087 63.218C 145.114 64.155 144.089 64.339 142.904 64.339C 140.835 64.339 138.972 63.028 138.972 59.456C 138.972 55.884 140.781 54.573 142.85 54.573C 144.918 54.573 146.522 55.63 146.522 59.201L 139.302 59.201M 157.579 54.652L 157.579 64.654C 157.579 69.351 152.286 69.001 150.851 67.47M 157.245 62.573C 156.565 63.661 155.341 64.214 154.055 64.214C 151.874 64.214 150.117 62.903 150.117 59.331C 150.117 55.76 151.768 54.449 153.95 54.449C 155.218 54.449 156.523 55.129 157.245 56.502M 167.389 49.928L 166.141 51.555M 170.138 59.467C 170.138 62.533 168.267 64.351 165.959 64.351C 163.651 64.351 161.78 62.533 161.78 59.467C 161.78 56.402 163.651 54.584 165.959 54.584C 168.267 54.584 170.138 56.402 170.138 59.467ZM 181.132 62.254C 180.76 63.649 179.192 64.339 177.723 64.339C 175.586 64.339 173.82 63.028 173.82 59.456C 173.82 55.884 175.689 54.573 177.827 54.573C 179.334 54.573 180.984 55.41 181.217 56.915M 185.478 50.971L 185.502 50.971M 185.462 54.804L 185.462 64.145M 198.187 59.457C 198.187 62.522 196.316 64.34 194.008 64.34C 191.7 64.34 189.829 62.522 189.829 59.457C 189.829 56.391 191.7 54.573 194.008 54.573C 196.316 54.573 198.187 56.391 198.187 59.457Z"></path></g></g></g><g id="g-root-tx_integrat_dju61jc8sirs-stroke" data-item-order="0" data-item-id="tx_integrat_dju61jc8sirs" data-item-class="Label Stroke SceneTarget Indexed Indexed_1" data-item-index="1" data-renderer-id="0" transform="translate(75, -3)"><g id="tx_integrat_dju61jc8sirs-stroke" fill="none" stroke-linecap="square" stroke-linejoin="miter" stroke-miterlimit="4" stroke="#484848" stroke-width="2"><g xmlns="http://www.w3.org/2000/svg"><path d="M 31.788 28.137L 24.224 28.142L 24.224 14.95C 25.172 14.95 30.346 14.95 31.746 14.95M 30.734 21.297L 24.688 21.297M 41.988 20.381C 41.692 19.404 40.538 18.584 38.928 18.584C 37.04 18.584 35.82 19.447 35.729 20.751C 35.624 22.246 36.858 22.822 38.788 23.339C 40.482 23.797 42.425 24.277 42.271 26.122C 42.172 27.31 41.195 28.346 38.838 28.346C 36.932 28.346 35.855 27.53 35.52 26.424M 49.609 28.326C 48.2 28.465 47.342 27.732 47.342 26.387L 47.342 16.081M 49.492 18.642L 47.728 18.642M 45.232 18.642L 46.965 18.642M 57.125 18.609C 55.744 18.419 54.496 19.319 53.854 20.619M 53.499 18.773L 53.499 28.123M 60.748 20.246C 61.112 19.28 62.528 18.567 63.868 18.567C 65.722 18.567 67.224 19.88 67.224 21.499L 67.23 22.957L 67.23 25.571C 67.23 26.614 67.205 27.353 67.507 28.278M 66.85 22.957L 64.122 22.957C 61.619 22.957 60.319 24.343 60.319 25.837C 60.319 27.331 61.557 28.341 63.173 28.341C 65.155 28.341 66.781 26.888 67.181 25.732M 75.029 28.326C 73.62 28.465 72.762 27.732 72.762 26.387L 72.762 16.081M 74.912 18.642L 73.148 18.642M 70.652 18.642L 72.385 18.642M 83.897 13.928L 82.65 15.555M 85.587 27.218C 84.614 28.155 83.589 28.339 82.404 28.339C 80.335 28.339 78.472 27.028 78.472 23.456C 78.472 19.884 80.281 18.573 82.35 18.573C 84.418 18.573 86.022 19.63 86.022 23.201L 78.802 23.201M 97.099 18.652L 97.099 28.654C 97.099 33.351 91.806 33.001 90.371 31.47M 96.765 26.573C 96.085 27.661 94.861 28.214 93.575 28.214C 91.394 28.214 89.637 26.903 89.637 23.331C 89.637 19.76 91.288 18.449 93.47 18.449C 94.738 18.449 96.043 19.129 96.765 20.502M 102.038 14.971L 102.062 14.971M 102.022 18.804L 102.022 28.145M 107.068 20.246C 107.432 19.28 108.848 18.567 110.188 18.567C 112.042 18.567 113.544 19.88 113.544 21.499L 113.55 22.957L 113.55 25.571C 113.55 26.614 113.525 27.353 113.826 28.278M 113.17 22.957L 110.442 22.957C 107.939 22.957 106.639 24.343 106.639 25.837C 106.639 27.331 107.877 28.341 109.493 28.341C 111.475 28.341 113.101 26.888 113.501 25.732M 29.945 38.938L 29.945 52.127M 35.169 42.78L 35.169 52.128M 42.003 52.128L 42.003 46.074C 42.003 45.362 42.099 42.79 39.716 42.587C 37.958 42.437 36.269 43.562 35.493 44.956M 49.749 52.326C 48.34 52.465 47.482 51.732 47.482 50.387L 47.482 40.081M 49.632 42.642L 47.868 42.642M 45.372 42.642L 47.105 42.642M 60.307 51.218C 59.334 52.155 58.309 52.339 57.124 52.339C 55.055 52.339 53.192 51.028 53.192 47.456C 53.192 43.884 55.001 42.573 57.07 42.573C 59.138 42.573 60.742 43.63 60.742 47.201L 53.522 47.201M 71.799 42.652L 71.799 52.654C 71.799 57.351 66.506 57.001 65.071 55.47M 71.465 50.573C 70.785 51.661 69.561 52.214 68.275 52.214C 66.094 52.214 64.337 50.903 64.337 47.331C 64.337 43.76 65.988 42.449 68.17 42.449C 69.438 42.449 70.743 43.129 71.465 44.502M 80.165 42.609C 78.784 42.419 77.536 43.319 76.894 44.619M 76.539 42.773L 76.539 52.123M 83.788 44.246C 84.152 43.28 85.568 42.567 86.908 42.567C 88.762 42.567 90.264 43.88 90.264 45.499L 90.27 46.957L 90.27 49.571C 90.27 50.614 90.245 51.353 90.547 52.278M 89.89 46.957L 87.162 46.957C 84.659 46.957 83.359 48.343 83.359 49.837C 83.359 51.332 84.597 52.341 86.213 52.341C 88.195 52.341 89.821 50.888 90.221 49.732M 102.1 52.124L 102.1 38.123M 101.74 50.773C 100.878 51.871 99.78 52.34 98.47 52.34C 96.289 52.34 94.637 51.029 94.637 47.458C 94.637 43.886 96.394 42.575 98.576 42.575C 99.845 42.575 101.055 43.114 101.74 44.175M 107.068 44.246C 107.432 43.28 108.848 42.567 110.188 42.567C 112.042 42.567 113.544 43.88 113.544 45.499L 113.55 46.957L 113.55 49.571C 113.55 50.614 113.525 51.353 113.826 52.278M 113.17 46.957L 110.442 46.957C 107.939 46.957 106.639 48.343 106.639 49.837C 106.639 51.332 107.877 52.341 109.493 52.341C 111.475 52.341 113.101 50.888 113.501 49.732"></path></g></g></g></g></svg>