<?xml version="1.0" encoding="UTF-8"?>
<svg xmlns="http://www.w3.org/2000/svg" version="1.1" viewBox="0 0 740 542">
  <defs>
    <style>
      .cls-1 {
        fill: #e6f9ff;
      }

      .cls-1, .cls-2, .cls-3, .cls-4, .cls-5, .cls-6 {
        fill-rule: evenodd;
      }

      .cls-2 {
        fill: #fef2e6;
      }

      .cls-7, .cls-8 {
        stroke: #b65edf;
      }

      .cls-7, .cls-8, .cls-9, .cls-10, .cls-11, .cls-12, .cls-13, .cls-14, .cls-15, .cls-16, .cls-17, .cls-18 {
        fill: none;
      }

      .cls-7, .cls-9, .cls-11, .cls-12, .cls-15, .cls-16 {
        stroke-linecap: square;
        stroke-width: 3px;
      }

      .cls-3 {
        fill: #e6efff;
      }

      .cls-8, .cls-10, .cls-13, .cls-14, .cls-17, .cls-18 {
        stroke-linecap: round;
        stroke-linejoin: round;
        stroke-width: 2px;
      }

      .cls-4 {
        fill: #fee7f5;
      }

      .cls-9, .cls-14 {
        stroke: #dd8433;
      }

      .cls-10, .cls-11 {
        stroke: #da5da8;
      }

      .cls-5 {
        fill: #f7e6fe;
      }

      .cls-12, .cls-18 {
        stroke: #4682e3;
      }

      .cls-13, .cls-15 {
        stroke: #e15e5a;
      }

      .cls-6 {
        fill: #ffe7e6;
      }

      .cls-16, .cls-17 {
        stroke: #17b0e3;
      }
    </style>
  </defs>
  <!-- Generator: Adobe Illustrator 28.6.0, SVG Export Plug-In . SVG Version: 1.2.0 Build 709)  -->
  <g>
    <g id="Layer_1">
      <g id="g-root-5.cu_sy_1czv8r0goxafd-fill">
        <g id="_x35_.cu_x5F_sy_x5F_1czv8r0goxafd-fill">
          <path class="cls-2" d="M680.8,541H57.2l41.6-72h540.4l41.6,72Z"/>
        </g>
      </g>
      <g id="g-root-4.cu_sy_1qbbr4cgox8uf-fill">
        <g id="_x34_.cu_x5F_sy_x5F_1qbbr4cgox8uf-fill">
          <path class="cls-6" d="M105.7,457l41.6-72h443.4l41.6,72H105.7Z"/>
        </g>
      </g>
      <g id="g-root-3.cu_sy_4l1qfggoxamd-fill">
        <g id="_x33_.cu_x5F_sy_x5F_4l1qfggoxamd-fill">
          <path class="cls-4" d="M154.2,373l41.6-72h346.4l41.6,72H154.2Z"/>
        </g>
      </g>
      <g id="g-root-2.cu_sy_hwi8ssgox91f-fill">
        <g id="_x32_.cu_x5F_sy_x5F_hwi8ssgox91f-fill">
          <path class="cls-5" d="M202.7,289l41.6-72h249.4l41.6,72H202.7Z"/>
        </g>
      </g>
      <g id="g-root-1.cu_sy_v7ca30goxam9-fill">
        <g id="_x31_.cu_x5F_sy_x5F_v7ca30goxam9-fill">
          <path class="cls-3" d="M251.2,205l41.6-72h152.4l41.6,72h-235.6Z"/>
        </g>
      </g>
      <g id="g-root-1.cu_sy_18hka7wdd6bkf-fill">
        <g id="_x31_.cu_x5F_sy_x5F_18hka7wdd6bkf-fill">
          <path class="cls-1" d="M299.7,121L369,1l69.3,120h-138.6Z"/>
        </g>
      </g>
      <g id="g-root-5.cu_sy_1czv8r0goxafd-stroke">
        <g id="_x35_.cu_x5F_sy_x5F_1czv8r0goxafd-stroke">
          <path class="cls-14" d="M680.8,541H57.2l41.6-72h540.4l41.6,72Z"/>
        </g>
      </g>
      <g id="g-root-4.cu_sy_1qbbr4cgox8uf-stroke">
        <g id="_x34_.cu_x5F_sy_x5F_1qbbr4cgox8uf-stroke">
          <path class="cls-13" d="M105.7,457l41.6-72h443.4l41.6,72H105.7Z"/>
        </g>
      </g>
      <g id="g-root-3.cu_sy_4l1qfggoxamd-stroke">
        <g id="_x33_.cu_x5F_sy_x5F_4l1qfggoxamd-stroke">
          <path class="cls-10" d="M154.2,373l41.6-72h346.4l41.6,72H154.2Z"/>
        </g>
      </g>
      <g id="g-root-2.cu_sy_hwi8ssgox91f-stroke">
        <g id="_x32_.cu_x5F_sy_x5F_hwi8ssgox91f-stroke">
          <path class="cls-8" d="M202.7,289l41.6-72h249.4l41.6,72H202.7Z"/>
        </g>
      </g>
      <g id="g-root-1.cu_sy_v7ca30goxam9-stroke">
        <g id="_x31_.cu_x5F_sy_x5F_v7ca30goxam9-stroke">
          <path class="cls-18" d="M251.2,205l41.6-72h152.4l41.6,72h-235.6Z"/>
        </g>
      </g>
      <g id="g-root-1.cu_sy_18hka7wdd6bkf-stroke">
        <g id="_x31_.cu_x5F_sy_x5F_18hka7wdd6bkf-stroke">
          <path class="cls-17" d="M299.7,121L369,1l69.3,120h-138.6Z"/>
        </g>
      </g>
      <g id="g-root-tx_otimizar_13z9l2zhim8zt-stroke">
        <g id="tx_otimizar_13z9l2zhim8zt-stroke">
          <path class="cls-16" d="M359.6,68.4v19.8M366.3,88.2l7.4-19.8h.9l7.4,19.8M369.1,82.4h10.3"/>
        </g>
      </g>
      <g id="g-root-tx_analisar_1haq3gbhim7ew-stroke">
        <g id="tx_analisar_1haq3gbhim7ew-stroke">
          <path class="cls-12" d="M329.1,178.2v-19.8h7.9c1.6,0,5.2,1.2,5.2,5.4s-3.6,5.5-5.2,5.6h-7.1M353.8,163.9c-2.1-.3-3.9,1.1-4.9,3M348.4,164.2v14M369.1,176.8c-1.5,1.4-3,1.7-4.8,1.7-3.1,0-5.9-2-5.9-7.3s2.7-7.3,5.8-7.3,5.5,1.6,5.5,6.9h-10.8M385,164l-5.1,14.1h-.3l-5.1-14.1M401,176.8c-1.5,1.4-3,1.7-4.8,1.7-3.1,0-5.9-2-5.9-7.3s2.7-7.3,5.8-7.3,5.5,1.6,5.5,6.9h-10.8M413.1,163.9c-2.1-.3-3.9,1.1-4.9,3M407.7,164.2v14"/>
        </g>
      </g>
      <g id="g-root-tx_agregarr_1ulk4qjhim8zr-stroke">
        <g id="tx_agregarr_1ulk4qjhim8zr-stroke">
          <path class="cls-7" d="M315.1,262.2l7.4-19.8h.9l7.4,19.8M317.9,256.4h10.3M336.9,248.2v14M347.1,262.2v-9.1c0-1.1.1-4.9-3.4-5.2-2.6-.2-5.2,1.5-6.3,3.6M354.5,250.4c.5-1.4,2.7-2.5,4.7-2.5s5,2,5,4.4v2.2s0,3.9,0,3.9c0,1.6,0,2.7.4,4.1M363.6,254.4h-4.1c-3.8,0-5.7,2.1-5.7,4.3s1.9,3.8,4.3,3.8,5.4-2.2,6-3.9M371.6,241.2v21M379.3,242.5h0M379.2,248.2v14M395.9,250.6c-.4-1.5-2.2-2.7-4.6-2.7s-4.7,1.3-4.8,3.3c-.2,2.2,1.7,3.1,4.6,3.9,2.5.7,5.5,1.4,5.2,4.2-.1,1.8-1.6,3.3-5.1,3.3s-4.5-1.2-5-2.9M403,250.4c.5-1.4,2.7-2.5,4.7-2.5s5,2,5,4.4v2.2s0,3.9,0,3.9c0,1.6,0,2.7.4,4.1M412.2,254.4h-4.1c-3.8,0-5.7,2.1-5.7,4.3s1.9,3.8,4.3,3.8,5.4-2.2,6-3.9M425.4,247.9c-2.1-.3-3.9,1.1-4.9,3M420,248.2v14"/>
        </g>
      </g>
      <g id="g-root-tx_explorar_dbq397him6tq-stroke">
        <g id="tx_explorar_dbq397him6tq-stroke">
          <path class="cls-11" d="M305.4,336.2c0,7.1,3.1,10.3,7.6,10.3s7.6-3.3,7.6-10.3-3.3-10.1-7.6-10.1-7.6,3-7.6,10.1ZM332.8,331.9c-2.1-.3-3.9,1.1-4.9,3M327.3,332.2v14M348.5,332v15c0,7-7.9,6.5-10.1,4.2M348,343.9c-1,1.6-2.9,2.5-4.8,2.5-3.3,0-5.9-2-5.9-7.3s2.5-7.3,5.7-7.3,3.9,1,4.9,3.1M355.8,334.4c.5-1.4,2.7-2.5,4.7-2.5s5,2,5,4.4v2.2s0,3.9,0,3.9c0,1.6,0,2.7.4,4.1M365,338.4h-4.1c-3.8,0-5.7,2.1-5.7,4.3s1.9,3.8,4.3,3.8,5.4-2.2,6-3.9M372.8,332.2v14M383.1,346.2v-9.1c0-1.1.1-4.9-3.4-5.2-2.6-.2-5.2,1.5-6.3,3.6M390.5,326.5h0M390.5,332.2v14M397.1,332.2h10v.2l-10.1,13.5v.3h10.6M413.6,334.4c.5-1.4,2.7-2.5,4.7-2.5s5,2,5,4.4v2.2s0,3.9,0,3.9c0,1.6,0,2.7.4,4.1M422.8,338.4h-4.1c-3.8,0-5.7,2.1-5.7,4.3s1.9,3.8,4.3,3.8,5.4-2.2,6-3.9M436,331.9c-2.1-.3-3.9,1.1-4.9,3M430.6,332.2v14"/>
        </g>
      </g>
      <g id="g-root-tx_moverarm_qwjpx7hiktu5-stroke">
        <g id="tx_moverarm_qwjpx7hiktu5-stroke">
          <path class="cls-15" d="M295.5,430.2l7.4-19.8h.9l7.4,19.8M298.3,424.4h10.3M322.6,415.9c-2.1-.3-3.9,1.1-4.9,3M317.2,416.2v14M327.9,416.2v14M338.2,430.2v-10c-.1-1.4-.7-3.6-3.5-4.2-2.9-.7-5.1.9-6.2,2.9M348.4,430.2v-9.1c0-1.1.2-4.4-3.5-5.2-3-.7-5.3,1-6.4,3.2M355.8,418.4c.5-1.4,2.7-2.5,4.7-2.5s5,2,5,4.4v2.2s0,3.9,0,3.9c0,1.6,0,2.7.4,4.1M364.9,422.4h-4.1c-3.8,0-5.7,2.1-5.7,4.3s1.9,3.8,4.3,3.8,5.4-2.2,6-3.9M372,416.2h10v.2l-10.1,13.5v.3h10.6M398.3,428.8c-1.5,1.4-3,1.7-4.8,1.7-3.1,0-5.9-2-5.9-7.3s2.7-7.3,5.8-7.3,5.5,1.6,5.5,6.9h-10.8M405.1,416.2v14M415.3,430.2v-9.1c0-1.1.1-4.9-3.4-5.2-2.6-.2-5.2,1.5-6.3,3.6M422.6,418.4c.5-1.4,2.7-2.5,4.7-2.5s5,2,5,4.4v2.2s0,3.9,0,3.9c0,1.6,0,2.7.4,4.1M431.8,422.4h-4.1c-3.8,0-5.7,2.1-5.7,4.3s1.9,3.8,4.3,3.8,5.4-2.2,6-3.9M445,415.9c-2.1-.3-3.9,1.1-4.9,3M439.6,416.2v14"/>
        </g>
      </g>
      <g id="g-root-tx_coletar_14808ajhiks98-stroke">
        <g id="tx_coletar_14808ajhiks98-stroke">
          <path class="cls-9" d="M336.9,509.7c-1,2.9-3.7,4.9-6.8,4.9s-7.2-3.3-7.2-7.3v-5.8c0-4.1,3.2-7.3,7.2-7.3s5.8,2,6.8,4.9M355.2,507.2c0,4.6-2.8,7.3-6.3,7.3s-6.3-2.7-6.3-7.3,2.8-7.3,6.3-7.3,6.3,2.7,6.3,7.3ZM361.7,493.2v21M379.1,512.8c-1.5,1.4-3,1.7-4.8,1.7-3.1,0-5.9-2-5.9-7.3s2.7-7.3,5.8-7.3,5.5,1.6,5.5,6.9h-10.8M390.3,514.5c-2.1.2-3.4-.9-3.4-2.9v-15.5M390.1,500h-2.6M383.7,500h2.6M396.3,502.4c.5-1.4,2.7-2.5,4.7-2.5s5,2,5,4.4v2.2s0,3.9,0,3.9c0,1.6,0,2.7.4,4.1M405.5,506.4h-4.1c-3.8,0-5.7,2.1-5.7,4.3s1.9,3.8,4.3,3.8,5.4-2.2,6-3.9M418.7,499.9c-2.1-.3-3.9,1.1-4.9,3M413.2,500.2v14"/>
        </g>
      </g>
    </g>
  </g>
</svg>